# AST/ASF file generated using VICON BodyLanguage
# -----------------------------------------------
:version 1.10
:name VICON
:units
  mass 1.0
  length 0.45
  angle deg
:documentation
   .ast/.asf automatically generated from VICON data using
   VICON BodyBuilder and BodyLanguage model FoxedUp or BRILLIANT.MOD
:root
   order TX TY TZ RX RY RZ
   axis XYZ
   position 0 0 0  
   orientation 0 0 0 
:bonedata
  begin
     id 1 
     name lhipjoint
     direction 0.710188 -0.616876 0.339259 
     length 2.5669 
     axis 0 0 0  XYZ
  end
  begin
     id 2 
     name lfemur
     direction 0.34202 -0.939693 0  
     length 7.12796  
     axis 0 0 20  XYZ
    dof rx ry rz
    limits (-160.0 20.0)
           (-70.0 70.0)
           (-60.0 70.0)
  end
  begin
     id 3 
     name ltibia
     direction 0.34202 -0.939693 0   
     length 7.58108   
     axis 0 0 20   XYZ
    dof rx
    limits (-10.0 170.0)
  end
  begin
     id 4 
     name lfoot
     direction 0.0669471 -0.183936 0.980656   
     length 2.17365   
     axis -90 7.62852e-016 20   XYZ
    dof rx rz
    limits (-45.0 90.0)
           (-70.0 20.0)
  end
  begin
     id 5 
     name ltoes
     direction 1.53508e-011 -4.21705e-011 1   
     length 1.09427   
     axis -90 7.62852e-016 20   XYZ
    dof rx
    limits (-90.0 20.0)
  end
  begin
     id 6 
     name rhipjoint
     direction -0.700191 -0.625589 0.34405   
     length 2.53115  
     axis 0 0 0  XYZ 
  end
  begin
     id 7 
     name rfemur
     direction -0.34202 -0.939693 0   
     length 7.33006   
     axis 0 0 -20   XYZ
    dof rx ry rz
    limits (-160.0 20.0)
           (-70.0 70.0)
           (-70.0 60.0)
  end
  begin
     id 8 
     name rtibia
     direction -0.34202 -0.939693 0   
     length 7.64926   
     axis 0 0 -20   XYZ
    dof rx
    limits (-10.0 170.0)
 end
 begin
     id 9 
     name rfoot
     direction -0.0688927 -0.189281 0.979503   
     length 2.20493  
     axis -90 -7.62852e-016 -20   XYZ
    dof rx rz
    limits (-45.0 90.0)
           (-20.0 70.0)
  end
  begin
     id 10 
     name rtoes
     direction -1.53567e-011 -4.21933e-011 1   
     length 1.10919   
     axis -90 -7.62852e-016 -20   XYZ
    dof rx
    limits (-90.0 20.0)
  end
  begin
     id 11 
     name lowerback
     direction -0.0167868 0.989873 -0.140959   
     length 2.14596   
     axis 0 0 0   XYZ
    dof rx ry rz
    limits (-20.0 45.0)
           (-30.0 30.0)
           (-30.0 30.0)
  end
  begin
     id 12 
     name upperback
     direction 0.0129109 0.998033 0.0613525   
     length 2.10457   
     axis 0 0 0   XYZ
    dof rx ry rz
    limits (-20.0 45.0)
           (-30.0 30.0)
           (-30.0 30.0)
  end
  begin
     id 13 
     name thorax
     direction 0.0177047 0.991119 0.131797   
     length 2.17652   
     axis 0 0 0   XYZ
    dof rx ry rz
    limits (-20.0 45.0)
           (-30.0 30.0)
           (-30.0 30.0)
  end
  begin
     id 14 
     name lowerneck
     direction -0.0336893 0.997548 0.0613464   
     length 1.8912   
     axis 0 0 0   XYZ
    dof rx ry rz
    limits (-20.0 45.0)
           (-30.0 30.0)
           (-30.0 30.0)
  end
  begin
     id 15 
     name upperneck
     direction 0.0435909 0.997179 -0.0611028   
     length 1.8829   
     axis 0 0 0   XYZ
    dof rx ry rz
    limits (-20.0 45.0)
           (-30.0 30.0)
           (-30.0 30.0)
  end
  begin
     id 16
     name head
     direction 0.0175076 0.999444 -0.0283782  
     length 1.93197  
     axis 0 0 0   XYZ
    dof rx ry rz
    limits (-20.0 45.0)
           (-30.0 30.0)
           (-30.0 30.0)
  end
  begin
     id 17 
     name lclavicle
     direction 0.919164 0.389875 0.0559876  
     length 3.60004  
     axis 0 0 0   XYZ
    dof ry rz
    limits (-20.0 10.0)
           (0.0 20.0)
  end
  begin
     id 18 
     name lhumerus
     direction 1 -4.48958e-011 6.89191e-027   
     length 5.43301   
     axis 180 -30 -90   XYZ
    dof rx ry rz
    limits (-60.0 90.0)
           (-90.0 90.0)
           (-90.0 90.0)
  end
  begin
     id 19
     name lradius
     direction 1 -4.4897e-011 3.24727e-027   
     length 3.15936   
     axis 180 -30 -90   XYZ
    dof rx
    limits (-10.0 170.0)
  end
  begin
     id 20
     name lwrist
     direction 1 -4.4897e-011 9.00228e-027   
     length 1.57968   
     axis -6.29373e-015 90 90   XYZ
    dof ry
    limits (-180.0 0.0)
 end
  begin
     id 21 
     name lhand
     direction 1 -4.48968e-011 1.80042e-026   
     length 0.712827   
     axis -1.14882e-014 90 90   XYZ
    dof rx rz
    limits (-90.0 90.0)
           (-45.0 45.0)
  end
  begin
     id 22 
     name lfingers
     direction 1 -4.49019e-011 3.60267e-026   
     length 0.574699   
     axis -2.29769e-014 90 90   XYZ
    dof rx
    limits (0.0 90.0)
  end
  begin
     id 23
     name lthumb
     direction 0.707107 -6.3498e-011 0.707107   
     length 0.825157   
     axis -90 45 5.37419e-014   XYZ
    dof rx rz
    limits (-45.0 45.0)
           (-45.0 45.0)
  end
  begin
     id 24 
     name rclavicle
     direction -0.890334 0.455305 -0.00132111   
     length 3.51494  
     axis 0 0 0   XYZ 
    dof ry rz
    limits (-10.0 20.0)
           (-20.0 0.0)
  end
  begin
     id 25 
     name rhumerus
     direction -1 -4.48967e-011 5.07175e-028  
     length 5.34194   
     axis 180 30 90   XYZ
    dof rx ry rz
    limits (-90.0 60.0)
           (-90.0 90.0)
           (-90.0 90.0)
  end
  begin
     id 26 
     name rradius
     direction -1 -4.48955e-011 3.30467e-027   
     length 3.19351   
     axis 180 30 90   XYZ
    dof rx
    limits (-10.0 170.0)
  end
  begin
     id 27 
     name rwrist
     direction -1 -4.48968e-011 9.00208e-027   
     length 1.59676   
     axis -6.29373e-015 -90 -90   XYZ
    dof ry
    limits (-180.0 0.0)
  end
  begin
     id 28
     name rhand
     direction -1 -4.49e-011 1.80099e-026   
     length 0.743862   
     axis -1.14882e-014 -90 -90   XYZ
    dof rx rz
    limits (-90.0 90.0)
           (-45.0 45.0)
  end
  begin
     id 29
     name rfingers
     direction -1 -4.49009e-011 3.6023e-026   
     length 0.599721   
     axis -2.29769e-014 -90 -90   XYZ
    dof rx
    limits (0.0 90.0)
  end
  begin
     id 30
     name rthumb
     direction -0.707107 -6.35025e-011 0.707107   
     length 0.861083   
     axis -90 -45 -5.37419e-014   XYZ
    dof rx rz
    limits (-45.0 45.0)
           (-45.0 45.0)
  end
:hierarchy
  begin
    root lhipjoint rhipjoint lowerback
    lhipjoint lfemur
    lfemur ltibia
    ltibia lfoot
    lfoot ltoes
    rhipjoint rfemur
    rfemur rtibia
    rtibia rfoot
    rfoot rtoes
    lowerback upperback
    upperback thorax
    thorax lowerneck lclavicle rclavicle
    lowerneck upperneck
    upperneck head
    lclavicle lhumerus
    lhumerus lradius
    lradius lwrist
    lwrist lhand lthumb
    lhand lfingers
    rclavicle rhumerus
    rhumerus rradius
    rradius rwrist
    rwrist rhand rthumb
    rhand rfingers
  end

#!OML:ASF H:\Martial Arts Walks\Project 1\Capture day 1\Session 1\male.ASF
:FULLY-SPECIFIED
:DEGREES
163
root -7.85973 16.6384 -25.1077 5.45745 2.8619 2.1488
lowerback 10.9577 2.40356 -4.59382
upperback -0.616598 2.60587 0.144808
thorax -7.027 1.44478 2.29762
lowerneck -4.99335 -4.68958 -5.99983
upperneck 5.46716 -6.12557 4.68615
head 3.02905 -3.02234 2.33052
rclavicle -5.96354e-016 1.25234e-014
rhumerus 3.02832 20.4355 -63.6933
rradius 51.1041
rwrist -3.78495
rhand -12.0684 -26.4575
rfingers 7.12502
rthumb 13.9911 -55.9667
lclavicle -5.96354e-016 1.25234e-014
lhumerus -0.687083 -20.1368 85.7411
lradius 54.1471
lwrist 14.8863
lhand -32.4321 32.131
lfingers 7.12502
lthumb -5.66588 62.0353
rfemur -31.8506 4.49374 18.1444
rtibia 56.3259
rfoot -17.1339 -18.3735
rtoes 3.04367
lfemur -27.9777 -5.85935 -25.6837
ltibia 43.4056
lfoot -17.5679 3.61024
ltoes 10.4782
164
root -7.84293 16.6372 -25.1061 5.47042 2.90993 2.1708
lowerback 10.9247 2.4064 -4.62152
upperback -0.606326 2.60731 0.135001
thorax -6.99828 1.44567 2.30393
lowerneck -5.00558 -4.72151 -5.9496
upperneck 5.476 -6.16376 4.57091
head 3.029 -3.04372 2.28011
rclavicle -8.57259e-015 -1.66979e-014
rhumerus 3.573 21.3644 -63.4331
rradius 51.8979
rwrist -4.05029
rhand -12.213 -26.4514
rfingers 7.12502
rthumb 13.8517 -55.9702
lclavicle -8.57259e-015 -1.66979e-014
lhumerus -0.682231 -20.3993 85.6832
lradius 54.856
lwrist 15.0661
lhand -32.5769 32.1394
lfingers 7.12502
lthumb -5.8057 62.0398
rfemur -32.0505 4.37925 18.3246
rtibia 56.5992
rfoot -17.0984 -19.1879
rtoes 3.05309
lfemur -27.9932 -6.09493 -25.7706
ltibia 43.4245
lfoot -17.4942 3.82854
ltoes 10.5145
165
root -7.82602 16.6363 -25.1027 5.47571 2.94945 2.20663
lowerback 10.8152 2.4527 -4.68907
upperback -0.614083 2.66413 0.108513
thorax -6.95094 1.47479 2.30759
lowerneck -4.76737 -4.73897 -5.92676
upperneck 5.39652 -6.2024 4.61257
head 2.96006 -3.06381 2.29257
rclavicle -1.41634e-014 -1.31198e-014
rhumerus 3.9905 22.2493 -63.1727
rradius 52.6906
rwrist -4.18051
rhand -12.3577 -26.3187
rfingers 7.12502
rthumb 13.7123 -55.8469
lclavicle -1.41634e-014 -1.31198e-014
lhumerus -0.727709 -20.8346 85.6598
lradius 55.5537
lwrist 15.2611
lhand -32.7457 32.3331
lfingers 7.12502
lthumb -5.96874 62.2291
rfemur -32.2364 4.21798 18.5079
rtibia 56.8718
rfoot -17.2227 -19.8023
rtoes 4.16596
lfemur -27.9956 -6.32441 -25.8819
ltibia 43.4615
lfoot -17.4459 4.05636
ltoes 10.4696
166
root -7.81169 16.6324 -25.1013 5.46364 2.9848 2.14896
lowerback 10.8717 2.4416 -4.6561
upperback -0.617303 2.65113 0.118108
thorax -6.98427 1.468 2.29941
lowerneck -4.83031 -4.773 -6.03649
upperneck 5.40812 -6.24353 4.71079
head 2.98804 -3.08283 2.34254
rclavicle -1.78161e-014 2.88238e-014
rhumerus 4.57027 23.2581 -62.8987
rradius 53.535
rwrist -4.31875
rhand -12.6971 -26.0823
rfingers 7.12502
rthumb 13.3852 -55.6323
lclavicle -1.78161e-014 2.88238e-014
lhumerus -0.74275 -21 85.5785
lradius 56.2697
lwrist 15.3973
lhand -32.9404 32.0636
lfingers 7.12502
lthumb -6.15663 61.9541
rfemur -32.436 3.99516 18.8484
rtibia 57.1148
rfoot -17.3412 -20.4362
rtoes 5.65646
lfemur -28.0353 -6.50229 -25.8741
ltibia 43.5512
lfoot -17.4305 4.22725
ltoes 10.6078
167
root -7.79687 16.6261 -25.1008 5.45847 3.03889 2.08706
lowerback 10.8667 2.47002 -4.6147
upperback -0.597211 2.69528 0.121335
thorax -6.96149 1.48737 2.27248
lowerneck -4.96817 -4.7874 -5.99487
upperneck 5.50781 -6.25924 4.68238
head 3.04591 -3.08909 2.32177
rclavicle -3.80176e-015 1.51076e-014
rhumerus 5.12628 24.1946 -62.5231
rradius 54.3411
rwrist -4.24387
rhand -13.0364 -26.1567
rfingers 7.12502
rthumb 13.0581 -55.7279
lclavicle -3.80176e-015 1.51076e-014
lhumerus -0.728305 -21.4182 85.4899
lradius 57.0529
lwrist 15.5848
lhand -32.9725 32.7869
lfingers 7.12502
lthumb -6.18769 62.6765
rfemur -32.6322 3.72793 19.2261
rtibia 57.3533
rfoot -17.4271 -20.9312
rtoes 6.04184
lfemur -28.1016 -6.69842 -25.8631
ltibia 43.6648
lfoot -17.4143 4.38674
ltoes 10.68
168
root -7.78239 16.6199 -25.0965 5.49122 3.08146 2.02068
lowerback 10.7772 2.48381 -4.5837
upperback -0.602813 2.72306 0.130978
thorax -6.91774 1.4995 2.26354
lowerneck -4.9079 -4.80057 -6.06575
upperneck 5.46054 -6.28031 4.78046
head 3.02757 -3.09868 2.36808
rclavicle -8.67198e-015 -7.95139e-015
rhumerus 5.65073 25.2 -62.1668
rradius 55.1734
rwrist -4.1957
rhand -13.5729 -25.9577
rfingers 7.12502
rthumb 12.5409 -55.5613
lclavicle -8.67198e-015 -7.95139e-015
lhumerus -0.776567 -21.744 85.4329
lradius 57.8151
lwrist 15.7459
lhand -32.9285 32.4418
lfingers 7.12502
lthumb -6.14516 62.3327
rfemur -32.8062 3.44151 19.6047
rtibia 57.5762
rfoot -17.7706 -21.0104
rtoes 6.01996
lfemur -28.2076 -6.83593 -25.8461
ltibia 43.8141
lfoot -17.4256 4.52604
ltoes 10.6856
169
root -7.76985 16.6158 -25.0919 5.48757 3.10027 1.97667
lowerback 10.7056 2.50248 -4.6198
upperback -0.583666 2.74924 0.156176
thorax -6.86188 1.51292 2.30895
lowerneck -4.87972 -4.82903 -6.02998
upperneck 5.3991 -6.31673 4.7193
head 2.99887 -3.11813 2.33957
rclavicle 2.03754e-014 -3.97569e-016
rhumerus 6.25862 26.2299 -61.7269
rradius 56.0718
rwrist -4.21905
rhand -14.0543 -26.4768
rfingers 7.12502
rthumb 12.0768 -56.1083
lclavicle 2.03754e-014 -3.97569e-016
lhumerus -0.808943 -22.0265 85.3733
lradius 58.5863
lwrist 15.8929
lhand -32.8563 32.3722
lfingers 7.12502
lthumb -6.0755 62.2651
rfemur -32.9802 3.14842 19.9653
rtibia 57.7956
rfoot -18.0908 -20.7475
rtoes 5.43182
lfemur -28.2557 -6.93513 -25.8516
ltibia 43.9579
lfoot -17.4748 4.63058
ltoes 10.8022
170
root -7.75828 16.6097 -25.089 5.46801 3.17414 1.91092
lowerback 10.7116 2.50677 -4.60421
upperback -0.5934 2.7581 0.180394
thorax -6.87685 1.51761 2.32378
lowerneck -4.83692 -4.84012 -6.01054
upperneck 5.36426 -6.33195 4.68315
head 2.97717 -3.12685 2.32389
rclavicle -1.87603e-014 1.27222e-014
rhumerus 6.79713 27.2429 -61.3094
rradius 56.9004
rwrist -4.25826
rhand -14.248 -26.113
rfingers 7.12502
rthumb 11.89 -55.7554
lclavicle -1.87603e-014 1.27222e-014
lhumerus -0.901326 -22.3772 85.31
lradius 59.3959
lwrist 16.0933
lhand -32.9074 32.2515
lfingers 7.12502
lthumb -6.12481 62.143
rfemur -33.123 2.81207 20.3625
rtibia 58
rfoot -18.5356 -20.107
rtoes 4.635
lfemur -28.3117 -7.04644 -25.8308
ltibia 44.1112
lfoot -17.5134 4.73282
ltoes 10.7301
